<?xml version="1.0" encoding="UTF-8" standalone="no"?>
<svg
   xmlns:dc="http://purl.org/dc/elements/1.1/"
   xmlns:cc="http://creativecommons.org/ns#"
   xmlns:rdf="http://www.w3.org/1999/02/22-rdf-syntax-ns#"
   xmlns:svg="http://www.w3.org/2000/svg"
   xmlns="http://www.w3.org/2000/svg"
   xmlns:xlink="http://www.w3.org/1999/xlink"
   xmlns:sodipodi="http://sodipodi.sourceforge.net/DTD/sodipodi-0.dtd"
   xmlns:inkscape="http://www.inkscape.org/namespaces/inkscape"
   width="86"
   height="64"
   id="svg4729"
   version="1.1"
   sodipodi:docname="appearance-default.svg"
   inkscape:version="0.92.5 (2060ec1f9f, 2020-04-08)">
  <sodipodi:namedview
     pagecolor="#ffffff"
     bordercolor="#666666"
     borderopacity="1"
     objecttolerance="10"
     gridtolerance="10"
     guidetolerance="10"
     inkscape:pageopacity="0"
     inkscape:pageshadow="2"
     inkscape:window-width="3200"
     inkscape:window-height="1678"
     id="namedview55"
     showgrid="false"
     inkscape:zoom="8"
     inkscape:cx="34.308007"
     inkscape:cy="22.40478"
     inkscape:window-x="0"
     inkscape:window-y="60"
     inkscape:window-maximized="1"
     inkscape:current-layer="svg4729">
    <inkscape:grid
       type="xygrid"
       id="grid55" />
  </sodipodi:namedview>
  <defs
     id="defs4731">
    <linearGradient
       id="linearGradient84">
      <stop
         offset="0"
         style="stop-color:#ffffff;stop-opacity:1;"
         id="stop76" />
      <stop
         id="stop78"
         style="stop-color:#ffffff;stop-opacity:0.23529412;"
         offset="0.02271564" />
      <stop
         offset="0.96854061"
         style="stop-color:#ffffff;stop-opacity:0.15686275;"
         id="stop80" />
      <stop
         offset="1"
         style="stop-color:#ffffff;stop-opacity:0.39215687;"
         id="stop82" />
    </linearGradient>
    <linearGradient
       id="linearGradient65">
      <stop
         offset="0"
         style="stop-color:#ffffff;stop-opacity:1;"
         id="stop57" />
      <stop
         id="stop59"
         style="stop-color:#ffffff;stop-opacity:0.23529412;"
         offset="0.01931654" />
      <stop
         offset="0.98240989"
         style="stop-color:#ffffff;stop-opacity:0.15686275;"
         id="stop61" />
      <stop
         offset="1"
         style="stop-color:#ffffff;stop-opacity:0.39215687;"
         id="stop63" />
    </linearGradient>
    <linearGradient
       xlink:href="#linearGradient84"
       id="linearGradient9678"
       gradientUnits="userSpaceOnUse"
       gradientTransform="matrix(1.6615886,0,0,0.27717128,356.57702,415.09144)"
       x1="14.066927"
       y1="6.709353"
       x2="14.066927"
       y2="78.866898" />
    <filter
       style="color-interpolation-filters:sRGB"
       id="filter1523"
       x="-0.057365853"
       width="1.1147317"
       y="-0.294"
       height="1.5880001">
      <feGaussianBlur
         stdDeviation="0.98"
         id="feGaussianBlur1525" />
    </filter>
    <linearGradient
       xlink:href="#linearGradient65"
       id="linearGradient1529"
       gradientUnits="userSpaceOnUse"
       gradientTransform="matrix(2.6263817,0,0,0.43555485,31.054713,11.10443)"
       x1="14.447668"
       y1="6.6480026"
       x2="14.447668"
       y2="66.264153" />
    <filter
       height="1.0884571"
       y="-0.044228554"
       width="1.0607059"
       x="-0.03035295"
       id="filter4700"
       style="color-interpolation-filters:sRGB">
      <feGaussianBlur
         id="feGaussianBlur4702"
         stdDeviation="0.6450012" />
    </filter>
    <filter
       height="1.2063999"
       y="-0.10319996"
       width="1.1416471"
       x="-0.07082355"
       id="filter4733"
       style="color-interpolation-filters:sRGB">
      <feGaussianBlur
         id="feGaussianBlur4735"
         stdDeviation="1.5050028" />
    </filter>
    <filter
       height="1.0441815"
       y="-0.022090763"
       width="1.052541"
       x="-0.026270477"
       id="filter4818"
       style="color-interpolation-filters:sRGB">
      <feGaussianBlur
         id="feGaussianBlur4820"
         stdDeviation="0.4050032" />
    </filter>
    <filter
       height="1.2063999"
       y="-0.10319996"
       width="1.1416471"
       x="-0.07082355"
       id="filter4733-2-6"
       style="color-interpolation-filters:sRGB">
      <feGaussianBlur
         id="feGaussianBlur4735-9-0"
         stdDeviation="1.5050028" />
    </filter>
    <filter
       height="1.0884571"
       y="-0.044228554"
       width="1.0607059"
       x="-0.03035295"
       id="filter4700-5-6"
       style="color-interpolation-filters:sRGB">
      <feGaussianBlur
         id="feGaussianBlur4702-6-2"
         stdDeviation="0.6450012" />
    </filter>
    <linearGradient
       xlink:href="#linearGradient84"
       id="linearGradient9678-3-6"
       gradientUnits="userSpaceOnUse"
       gradientTransform="matrix(1.6615886,0,0,0.27717128,5.2172426,22.14036)"
       x1="14.066927"
       y1="6.709353"
       x2="14.066927"
       y2="78.866898" />
  </defs>
  <metadata
     id="metadata4734">
    <rdf:RDF>
      <cc:Work
         rdf:about="">
        <dc:format>image/svg+xml</dc:format>
        <dc:type
           rdf:resource="http://purl.org/dc/dcmitype/StillImage" />
        <dc:title />
      </cc:Work>
    </rdf:RDF>
  </metadata>
  <g
     id="g987"
     transform="translate(-361.35978,-402.95108)">
    <rect
       ry="3.1246369"
       rx="3.1246369"
       y="415.61584"
       x="364.71573"
       height="35.00008"
       width="51.00008"
       id="rect1143-9-0"
       style="color:#000000;display:inline;overflow:visible;visibility:visible;opacity:0.2;fill:#000000;fill-opacity:1;fill-rule:nonzero;stroke:none;stroke-width:1.56219625;stroke-linecap:butt;stroke-linejoin:miter;stroke-miterlimit:4;stroke-dasharray:none;stroke-dashoffset:0;stroke-opacity:0.50216447;marker:none;filter:url(#filter4733);enable-background:accumulate"
       transform="matrix(0.64007437,0,0,0.64007437,131.27054,152.21142)" />
    <rect
       ry="3.1246369"
       rx="3.1246369"
       y="414.61584"
       x="364.71573"
       height="35.00008"
       width="51.00008"
       id="rect1143-9"
       style="color:#000000;display:inline;overflow:visible;visibility:visible;opacity:0.5;fill:#000000;fill-opacity:1;fill-rule:nonzero;stroke:none;stroke-width:1.56219625;stroke-linecap:butt;stroke-linejoin:miter;stroke-miterlimit:4;stroke-dasharray:none;stroke-dashoffset:0;stroke-opacity:0.50216447;marker:none;filter:url(#filter4700);enable-background:accumulate"
       transform="matrix(0.60993427,0,0,0.64007437,143.03168,151.67261)" />
    <rect
       style="color:#000000;display:inline;overflow:visible;visibility:visible;opacity:1;fill:#4d4d4d;fill-opacity:1;fill-rule:nonzero;stroke:none;stroke-width:0.97582197;stroke-linecap:butt;stroke-linejoin:miter;stroke-miterlimit:4;stroke-dasharray:none;stroke-dashoffset:0;stroke-opacity:0.50216447;marker:none;enable-background:accumulate"
       id="rect4993-0-2"
       width="32"
       height="22"
       x="365.21576"
       y="416.11594"
       rx="1.5"
       ry="1.5" />
    <rect
       style="color:#000000;display:inline;overflow:visible;visibility:visible;opacity:0.74500002;fill:none;fill-opacity:1;fill-rule:nonzero;stroke:#000000;stroke-width:0.99992174;stroke-linecap:butt;stroke-linejoin:miter;stroke-miterlimit:4;stroke-dasharray:none;stroke-dashoffset:0;stroke-opacity:1;marker:none;enable-background:accumulate"
       id="rect4993-0"
       width="33.000076"
       height="23.000078"
       x="364.71573"
       y="415.61584"
       rx="2"
       ry="2" />
    <rect
       style="opacity:0.15;fill:none;stroke:url(#linearGradient9678);stroke-width:0.99999982;stroke-linecap:round;stroke-linejoin:round;stroke-miterlimit:4;stroke-dasharray:none;stroke-dashoffset:0;stroke-opacity:1"
       id="rect6741"
       y="416.61591"
       x="365.71576"
       ry="1"
       rx="1"
       height="21"
       width="31" />
  </g>
  <path
     inkscape:connector-curvature="0"
     style="color:#000000;display:inline;overflow:visible;visibility:visible;opacity:0.95;fill:#fafafa;fill-opacity:1;fill-rule:nonzero;stroke:none;stroke-width:0.94573361;stroke-linecap:butt;stroke-linejoin:miter;stroke-miterlimit:4;stroke-dasharray:none;stroke-dashoffset:0;stroke-opacity:1;marker:none;enable-background:accumulate"
     d="M 68,64 V 60.8239 C 68,59.81345 67.12517,59 66.03846,59 H 18.96154 C 17.87483,59 17,59.81345 17,60.8239 V 64"
     id="rect857" />
  <path
     inkscape:connector-curvature="0"
     style="color:#000000;display:inline;overflow:visible;visibility:visible;opacity:0.15;vector-effect:none;fill:none;fill-opacity:1;fill-rule:nonzero;stroke:#000000;stroke-width:0.9999218;stroke-linecap:butt;stroke-linejoin:miter;stroke-miterlimit:4;stroke-dasharray:none;stroke-dashoffset:0;stroke-opacity:1;marker:none;enable-background:accumulate"
     d="m 68.5,63.9834 v -3.48276 c 0,-1.10801 -0.89199,-2 -2,-2 h -48 c -1.10801,0 -2,0.89199 -2,2 v 3.48276"
     id="rect857-2" />
  <path
     inkscape:connector-curvature="0"
     style="color:#000000;display:inline;overflow:visible;visibility:visible;opacity:0.15;fill:#000000;fill-opacity:1;fill-rule:nonzero;stroke:none;stroke-width:0.9999218;stroke-linecap:butt;stroke-linejoin:miter;stroke-miterlimit:4;stroke-dasharray:none;stroke-dashoffset:0;stroke-opacity:1;marker:none;filter:url(#filter4818);enable-background:accumulate"
     d="m 73.499833,10.49933 c -0.25562,0 -0.51116,0.0991 -0.70703,0.295 l -2.29297,2.70564 h -14 c -1.108,0 -2,0.892 -2,2 v 25 c 0,1.108 0.892,2 2,2 h 23 c 1.108,0 2,-0.892 2,-2 v -25 c 0,-1.108 -0.892,-2 -2,-2 h -3 l -2.29297,-2.70564 c -0.19587,-0.19587 -0.45141,-0.295 -0.70703,-0.295 z"
     id="path1027"
     sodipodi:nodetypes="sccssssssssccs" />
  <rect
     transform="matrix(0.64007437,0,0,0.64007437,-220.08924,-240.73966)"
     style="color:#000000;display:inline;overflow:visible;visibility:visible;opacity:0.1;fill:#000000;fill-opacity:1;fill-rule:nonzero;stroke:none;stroke-width:1.56219625;stroke-linecap:butt;stroke-linejoin:miter;stroke-miterlimit:4;stroke-dasharray:none;stroke-dashoffset:0;stroke-opacity:0.50216447;marker:none;filter:url(#filter4733-2-6);enable-background:accumulate"
     id="rect1143-9-0-1"
     width="51.00008"
     height="35.00008"
     x="364.71573"
     y="415.61584"
     rx="3.1246369"
     ry="3.1246369" />
  <rect
     transform="matrix(0.60993427,0,0,0.64007437,-208.3281,-241.27847)"
     style="color:#000000;display:inline;overflow:visible;visibility:visible;opacity:0.1;fill:#000000;fill-opacity:1;fill-rule:nonzero;stroke:none;stroke-width:1.56219625;stroke-linecap:butt;stroke-linejoin:miter;stroke-miterlimit:4;stroke-dasharray:none;stroke-dashoffset:0;stroke-opacity:0.50216447;marker:none;filter:url(#filter4700-5-6);enable-background:accumulate"
     id="rect1143-9-2"
     width="51.00008"
     height="35.00008"
     x="364.71573"
     y="414.61584"
     rx="3.1246369"
     ry="3.1246369" />
  <rect
     ry="1.5"
     rx="1.5"
     y="23.164856"
     x="13.855982"
     height="22"
     width="32"
     id="rect4993-0-2-70"
     style="color:#000000;display:inline;overflow:visible;visibility:visible;opacity:1;vector-effect:none;fill:#fafafa;fill-opacity:1;fill-rule:nonzero;stroke:none;stroke-width:0.97582185;stroke-linecap:butt;stroke-linejoin:miter;stroke-miterlimit:4;stroke-dasharray:none;stroke-dashoffset:0;stroke-opacity:0.50216447;marker:none;enable-background:accumulate" />
  <rect
     ry="2"
     rx="2"
     y="22.664764"
     x="13.355951"
     height="23.000078"
     width="33.000076"
     id="rect4993-0-9"
     style="color:#000000;display:inline;overflow:visible;visibility:visible;opacity:0.15;vector-effect:none;fill:none;fill-opacity:1;fill-rule:nonzero;stroke:#000000;stroke-width:0.9999218;stroke-linecap:butt;stroke-linejoin:miter;stroke-miterlimit:4;stroke-dasharray:none;stroke-dashoffset:0;stroke-opacity:1;marker:none;enable-background:accumulate" />
  <rect
     width="31"
     height="21"
     rx="1"
     ry="1"
     x="14.355983"
     y="23.664825"
     id="rect6741-3"
     style="opacity:1;fill:none;stroke:url(#linearGradient9678-3-6);stroke-width:0.99999982;stroke-linecap:round;stroke-linejoin:round;stroke-miterlimit:4;stroke-dasharray:none;stroke-dashoffset:0;stroke-opacity:1" />
  <path
     inkscape:connector-curvature="0"
     id="rect845"
     d="m 73.499803,9.4994 c -0.25562,0 -0.51116,0.0991 -0.70703,0.295 l -2.29297,2.70564 h -14 c -1.108,0 -2,0.892 -2,2 v 25 c 0,1.108 0.892,2 2,2 h 23 c 1.108,0 2,-0.892 2,-2 v -25 c 0,-1.108 -0.892,-2 -2,-2 h -3 L 74.206833,9.7944 c -0.19587,-0.19587 -0.45141,-0.295 -0.70703,-0.295 z"
     style="color:#000000;display:inline;overflow:visible;visibility:visible;opacity:0.15;vector-effect:none;fill:none;fill-opacity:1;fill-rule:nonzero;stroke:#000000;stroke-width:0.9999218;stroke-linecap:butt;stroke-linejoin:miter;stroke-miterlimit:4;stroke-dasharray:none;stroke-dashoffset:0;stroke-opacity:1;marker:none;enable-background:accumulate"
     sodipodi:nodetypes="sccssssssssccs" />
  <path
     inkscape:connector-curvature="0"
     style="color:#000000;display:inline;overflow:visible;visibility:visible;opacity:0.95;fill:#fafafa;fill-opacity:1;fill-rule:nonzero;stroke:none;stroke-width:0.9999218;stroke-linecap:butt;stroke-linejoin:miter;stroke-miterlimit:4;stroke-dasharray:none;stroke-dashoffset:0;stroke-opacity:1;marker:none;enable-background:accumulate"
     id="rect845-6"
     d="m 73.498873,10.01299 c -0.12134,0 -0.24148,0.046 -0.33984,0.14257 l -2.26758,2.67579 c -0.09781,0.1153 -0.241385,0.181732 -0.39258,0.18164 h -14 c -0.83195,0 -1.48632,0.65437 -1.48632,1.48632 v 25 c 0,0.83196 0.65437,1.48633 1.48632,1.48633 h 23 c 0.83196,0 1.48633,-0.65437 1.48633,-1.48633 v -25 c 0,-0.83195 -0.65437,-1.48632 -1.48633,-1.48632 h -3 c -0.15119,8.9e-5 -0.29477,-0.06634 -0.39257,-0.18164 l -2.26758,-2.67579 c -0.0984,-0.0966 -0.21854,-0.14257 -0.33985,-0.14257 z"
     sodipodi:nodetypes="scccsssssssscccs" />
  <path
     inkscape:connector-curvature="0"
     id="rect1527"
     d="m 56.524693,13.49999 h 14.47511 l 2.5,-2.99999 2.5,2.99999 h 3.46292 c 0.554,0 1.03707,0.446 1.03707,1 V 39.5 c 0,0.554 -0.446,1 -1,1 h -23 c -0.554,0 -1,-0.446 -1,-1 V 14.49999 c 0,-0.554 0.4709,-1 1.0249,-1 z"
     style="opacity:1;fill:none;stroke:url(#linearGradient1529);stroke-width:0.99999988;stroke-linecap:round;stroke-linejoin:round;stroke-miterlimit:4;stroke-dasharray:none;stroke-dashoffset:0;stroke-opacity:1"
     sodipodi:nodetypes="scccssssssss" />
  <path
     inkscape:connector-curvature="0"
     id="rect1343"
     d="m 23.5,55.001 c -0.83101,0 -1.5,0.66899 -1.5,1.5 v 5 c 0,0.83101 0.66899,1.5 1.5,1.5 h 5 c 0.83101,0 1.5,-0.66899 1.5,-1.5 v -5 c 0,-0.83101 -0.66899,-1.5 -1.5,-1.5 z m 11,0 c -0.83101,0 -1.5,0.66899 -1.5,1.5 v 5 c 0,0.83101 0.66899,1.5 1.5,1.5 h 5 c 0.83101,0 1.5,-0.66899 1.5,-1.5 v -5 c 0,-0.83101 -0.66899,-1.5 -1.5,-1.5 z m 11,0 c -0.83101,0 -1.5,0.66899 -1.5,1.5 v 5 c 0,0.83101 0.66899,1.5 1.5,1.5 h 5 c 0.83101,0 1.5,-0.66899 1.5,-1.5 v -5 c 0,-0.83101 -0.66899,-1.5 -1.5,-1.5 z m 11,0 c -0.83101,0 -1.5,0.66899 -1.5,1.5 v 5 c 0,0.83101 0.66899,1.5 1.5,1.5 h 5 c 0.83101,0 1.5,-0.66899 1.5,-1.5 v -5 c 0,-0.83101 -0.66899,-1.5 -1.5,-1.5 z"
     style="opacity:0.1;vector-effect:none;fill:#000000;fill-opacity:1;stroke:none;stroke-width:1;stroke-linecap:round;stroke-linejoin:round;stroke-miterlimit:4;stroke-dasharray:none;stroke-dashoffset:0;stroke-opacity:1;marker:none;paint-order:normal;filter:url(#filter1523)" />
  <rect
     style="color:#000000;display:inline;overflow:visible;visibility:visible;opacity:0.15;vector-effect:none;fill:none;fill-opacity:1;fill-rule:nonzero;stroke:#000000;stroke-width:0.9999218;stroke-linecap:butt;stroke-linejoin:miter;stroke-miterlimit:4;stroke-dasharray:none;stroke-dashoffset:0;stroke-opacity:1;marker:none;enable-background:accumulate"
     id="rect863"
     width="7.0000782"
     height="7.0000782"
     x="22.499958"
     y="54.499954"
     rx="1.0000445"
     ry="1.0000445" />
  <rect
     ry="1.0000445"
     rx="1.0000445"
     y="54.499954"
     x="33.499958"
     height="7.0000782"
     width="7.0000782"
     id="rect869"
     style="color:#000000;display:inline;overflow:visible;visibility:visible;opacity:0.15;vector-effect:none;fill:none;fill-opacity:1;fill-rule:nonzero;stroke:#000000;stroke-width:0.9999218;stroke-linecap:butt;stroke-linejoin:miter;stroke-miterlimit:4;stroke-dasharray:none;stroke-dashoffset:0;stroke-opacity:1;marker:none;enable-background:accumulate" />
  <rect
     style="color:#000000;display:inline;overflow:visible;visibility:visible;opacity:0.15;vector-effect:none;fill:none;fill-opacity:1;fill-rule:nonzero;stroke:#000000;stroke-width:0.9999218;stroke-linecap:butt;stroke-linejoin:miter;stroke-miterlimit:4;stroke-dasharray:none;stroke-dashoffset:0;stroke-opacity:1;marker:none;enable-background:accumulate"
     id="rect875"
     width="7.0000782"
     height="7.0000782"
     x="55.499992"
     y="54.499954"
     rx="1.0000445"
     ry="1.0000445" />
  <rect
     ry="1.0000445"
     rx="1.0000445"
     y="54.499954"
     x="44.499989"
     height="7.0000782"
     width="7.0000782"
     id="rect881"
     style="color:#000000;display:inline;overflow:visible;visibility:visible;opacity:0.15;vector-effect:none;fill:none;fill-opacity:1;fill-rule:nonzero;stroke:#000000;stroke-width:0.9999218;stroke-linecap:butt;stroke-linejoin:miter;stroke-miterlimit:4;stroke-dasharray:none;stroke-dashoffset:0;stroke-opacity:1;marker:none;enable-background:accumulate" />
  <rect
     style="color:#000000;display:inline;overflow:visible;visibility:visible;opacity:1;vector-effect:none;fill:#fafafa;fill-opacity:1;fill-rule:nonzero;stroke:none;stroke-width:0.85706621;stroke-linecap:butt;stroke-linejoin:miter;stroke-miterlimit:4;stroke-dasharray:none;stroke-dashoffset:0;stroke-opacity:1;marker:none;enable-background:accumulate"
     id="rect863-1"
     width="6"
     height="6"
     x="22.999989"
     y="55.000015"
     rx="0.85717142"
     ry="0.85717142" />
  <rect
     style="color:#000000;display:inline;overflow:visible;visibility:visible;opacity:1;vector-effect:none;fill:#fafafa;fill-opacity:1;fill-rule:nonzero;stroke:none;stroke-width:0.85706621;stroke-linecap:butt;stroke-linejoin:miter;stroke-miterlimit:4;stroke-dasharray:none;stroke-dashoffset:0;stroke-opacity:1;marker:none;enable-background:accumulate"
     id="rect863-1-8"
     width="6"
     height="6"
     x="33.999989"
     y="55.000015"
     rx="0.85717142"
     ry="0.85717142" />
  <rect
     style="color:#000000;display:inline;overflow:visible;visibility:visible;opacity:1;vector-effect:none;fill:#fafafa;fill-opacity:1;fill-rule:nonzero;stroke:none;stroke-width:0.85706621;stroke-linecap:butt;stroke-linejoin:miter;stroke-miterlimit:4;stroke-dasharray:none;stroke-dashoffset:0;stroke-opacity:1;marker:none;enable-background:accumulate"
     id="rect863-1-4"
     width="6"
     height="6"
     x="44.999989"
     y="55.000015"
     rx="0.85717142"
     ry="0.85717142" />
  <rect
     style="color:#000000;display:inline;overflow:visible;visibility:visible;opacity:1;vector-effect:none;fill:#fafafa;fill-opacity:1;fill-rule:nonzero;stroke:none;stroke-width:0.85706621;stroke-linecap:butt;stroke-linejoin:miter;stroke-miterlimit:4;stroke-dasharray:none;stroke-dashoffset:0;stroke-opacity:1;marker:none;enable-background:accumulate"
     id="rect863-1-8-5"
     width="6"
     height="6"
     x="55.999992"
     y="55.000015"
     rx="0.85717142"
     ry="0.85717142" />
  <g
     id="g5339"
     transform="matrix(0.4137931,0,0,0.4137931,-51.037087,87.90069)"
     style="color:#bebebe;fill:#abacae;stroke-width:2.41666675">
    <path
       id="path5337"
       style="overflow:visible;isolation:auto;mix-blend-mode:normal;fill:#abacae;stroke-width:2.41666675;marker:none"
       overflow="visible"
       d="m 301,-210.01 a 1,1 0 0 0 -1,1 v 0.01 c -1.764,0.456 -2.998,2.168 -3,3.99 0,0 0,5 -1.66,5.622 -0.016,0.01 -0.023,0.03 -0.04,0.043 a 0.726,0.726 0 0 0 -0.161,0.175 c -0.018,0.027 -0.039,0.048 -0.053,0.077 a 0.738,0.738 0 0 0 -0.086,0.334 c 0,0.415 0.335,0.75 0.75,0.75 h 10.5 c 0.416,0 0.75,-0.335 0.75,-0.75 a 0.738,0.738 0 0 0 -0.086,-0.334 c -0.014,-0.03 -0.035,-0.05 -0.052,-0.077 a 0.725,0.725 0 0 0 -0.162,-0.175 c -0.016,-0.012 -0.023,-0.033 -0.04,-0.043 -1.66,-0.622 -1.66,-5.622 -1.66,-5.622 -0.002,-1.822 -1.235,-3.534 -3,-3.99 v -0.01 a 1,1 0 0 0 -1,-1 z m -1.933,13 a 2,2 0 0 0 1.933,1.5 2,2 0 0 0 1.936,-1.5 z"
       inkscape:connector-curvature="0" />
  </g>
</svg>
