<?xml version="1.0" encoding="UTF-8" standalone="no"?>
<svg
   xmlns:dc="http://purl.org/dc/elements/1.1/"
   xmlns:cc="http://creativecommons.org/ns#"
   xmlns:rdf="http://www.w3.org/1999/02/22-rdf-syntax-ns#"
   xmlns:svg="http://www.w3.org/2000/svg"
   xmlns="http://www.w3.org/2000/svg"
   xmlns:xlink="http://www.w3.org/1999/xlink"
   id="svg3767"
   height="128"
   width="128"
   version="1.1">
  <defs
     id="defs3769">
    <linearGradient
       id="linearGradient4011">
      <stop
         offset="0"
         style="stop-color:#ffffff;stop-opacity:1"
         id="stop4013" />
      <stop
         offset="0.507761"
         style="stop-color:#ffffff;stop-opacity:0.23529412"
         id="stop4015" />
      <stop
         offset="0.83456558"
         style="stop-color:#ffffff;stop-opacity:0.15686275"
         id="stop4017" />
      <stop
         offset="1"
         style="stop-color:#ffffff;stop-opacity:0.39215687"
         id="stop4019" />
    </linearGradient>
    <radialGradient
       r="62.769119"
       fy="186.17059"
       fx="99.157013"
       cy="186.17059"
       cx="99.157013"
       gradientTransform="matrix(0.6869404,0,0,0.21461693,-4.02174,68.573331)"
       gradientUnits="userSpaceOnUse"
       id="radialGradient3163"
       xlink:href="#linearGradient3820-7-2-8-6" />
    <linearGradient
       id="linearGradient3820-7-2-8-6">
      <stop
         offset="0"
         style="stop-color:#3d3d3d;stop-opacity:1"
         id="stop3822-2-6-5-0" />
      <stop
         offset="0.5"
         style="stop-color:#686868;stop-opacity:0.49803922"
         id="stop3864-8-7-4-1" />
      <stop
         offset="1"
         style="stop-color:#686868;stop-opacity:0"
         id="stop3824-1-2-6-7" />
    </linearGradient>
    <linearGradient
       x1="71.204407"
       y1="6.2375584"
       x2="71.204407"
       y2="44.340794"
       id="linearGradient12398-3"
       xlink:href="#linearGradient4011"
       gradientUnits="userSpaceOnUse"
       gradientTransform="matrix(2.756758,0,0,2.7567581,-133.25196,-3.4037532)" />
    <linearGradient
       id="linearGradient3907-5">
      <stop
         style="stop-color:#fafafa;stop-opacity:1"
         offset="0"
         id="stop3909-3" />
      <stop
         style="stop-color:#d4d4d4;stop-opacity:1"
         offset="1"
         id="stop3911-5" />
    </linearGradient>
    <linearGradient
       id="linearGradient5239">
      <stop
         style="stop-color:#9bdb4d;stop-opacity:1"
         offset="0"
         id="stop5241" />
      <stop
         style="stop-color:#68b723;stop-opacity:1"
         offset="1"
         id="stop5243" />
    </linearGradient>
    <linearGradient
       id="linearGradient4804">
      <stop
         id="stop4806"
         offset="0"
         style="stop-color:#206b00;stop-opacity:1" />
      <stop
         id="stop4809"
         offset="1"
         style="stop-color:#206b00;stop-opacity:0" />
    </linearGradient>
    <linearGradient
       xlink:href="#linearGradient4804"
       id="linearGradient1273-5"
       x1="16"
       y1="24"
       x2="32"
       y2="24"
       gradientUnits="userSpaceOnUse" />
    <clipPath
       clipPathUnits="userSpaceOnUse"
       id="clipPath3865-7-7-8-6-0-7">
      <path
         d="m 32,24 a 8,8 0 1 1 -16,0 8,8 0 1 1 16,0 z"
         id="path3867-9-4-4-4-6-6"
         style="opacity:0.2;fill:#000000;fill-opacity:1;stroke:none" />
    </clipPath>
    <clipPath
       clipPathUnits="userSpaceOnUse"
       id="clipPath3865-7-7-8-6-5">
      <path
         d="m 32,24 a 8,8 0 1 1 -16,0 8,8 0 1 1 16,0 z"
         id="path3867-9-4-4-4-69"
         style="opacity:0.2;fill:#000000;fill-opacity:1;stroke:none" />
    </clipPath>
    <linearGradient
       xlink:href="#linearGradient5239"
       id="linearGradient2842-3"
       gradientUnits="userSpaceOnUse"
       gradientTransform="matrix(0,-6.5079352,-6.5079348,0,214.18251,216.18252)"
       x1="16.683491"
       y1="23"
       x2="29.344547"
       y2="23" />
    <linearGradient
       y2="44.340794"
       x2="71.204407"
       y1="6.2375584"
       x1="71.204407"
       gradientTransform="matrix(2.2558247,0,0,-2.2558249,-97.31824,123.70148)"
       gradientUnits="userSpaceOnUse"
       id="linearGradient3993-0-6-0-8-5-5"
       xlink:href="#linearGradient4011" />
    <linearGradient
       xlink:href="#linearGradient3907-5"
       id="linearGradient3932-9-4"
       gradientUnits="userSpaceOnUse"
       gradientTransform="matrix(0,3.6785708,-3.6785707,0,149.10712,-18.107141)"
       x1="6.6574788"
       y1="23"
       x2="39.441502"
       y2="23" />
  </defs>
  <metadata
     id="metadata3772">
    <rdf:RDF>
      <cc:Work
         rdf:about="">
        <dc:format>image/svg+xml</dc:format>
        <dc:type
           rdf:resource="http://purl.org/dc/dcmitype/StillImage" />
        <dc:title></dc:title>
      </cc:Work>
    </rdf:RDF>
  </metadata>
  <path
     d="m 107.21186,108.52868 a 43.118644,13.471312 0 1 1 -86.237286,0 43.118644,13.471312 0 1 1 86.237286,0 z"
     id="path3818-0-5-0"
     style="fill:url(#radialGradient3163);fill-opacity:1;stroke:none" />
  <path
     style="fill:url(#linearGradient3932-9-4);fill-opacity:1;fill-rule:nonzero;stroke:none;stroke-width:1"
     id="path3902-8-1"
     d="M 64.501804,15 C 36.058255,15 13,38.059035 13,66.499346 13,94.942264 36.058501,117.99999 64.501804,117.99999 92.944103,117.99999 116,94.942264 116,66.499346 116,38.059035 92.944103,15 64.501804,15 Z" />
  <path
     style="color:#000000;display:inline;overflow:visible;visibility:visible;opacity:0.5;fill:none;stroke:url(#linearGradient3993-0-6-0-8-5-5);stroke-width:1;stroke-linecap:round;stroke-linejoin:round;stroke-miterlimit:4;stroke-dasharray:none;stroke-dashoffset:0;stroke-opacity:1;marker:none;enable-background:accumulate"
     id="path8655-1-6-9-4-8-2-9"
     d="m 106.23276,66.50147 c 0,-23.049108 -18.68577,-41.734242 -41.732231,-41.734242 -23.048568,0 -41.733287,18.68534 -41.733287,41.734242 0,23.04804 18.684719,41.73128 41.733287,41.73128 23.046461,0 41.732231,-18.68324 41.732231,-41.73128 z" />
  <path
     style="opacity:1;vector-effect:none;fill:url(#linearGradient2842-3);fill-opacity:1;fill-rule:nonzero;stroke:none;stroke-width:0.99999994;stroke-linecap:butt;stroke-linejoin:miter;stroke-miterlimit:4;stroke-dasharray:none;stroke-dashoffset:0;stroke-opacity:1"
     id="path3824-3-2-0"
     d="m 64.501459,107.49998 c -22.644412,0 -41.001458,-18.357661 -41.001458,-40.999466 0,-22.643876 18.357248,-41.000506 41.001458,-41.000506 22.643353,0 40.998541,18.35663 40.998541,41.000506 0,22.641807 -18.355188,40.999466 -40.998541,40.999466 z" />
  <path
     transform="matrix(5.125,0,0,5.125,-58.5,-56.500005)"
     d="m 32,24 a 8,8 0 1 1 -16,0 8,8 0 1 1 16,0 z"
     id="path3859-6-7-0-9-6"
     style="opacity:0.5;vector-effect:none;fill:none;fill-opacity:1;stroke:#555761;stroke-width:0.39024389;stroke-linecap:butt;stroke-linejoin:miter;stroke-miterlimit:4;stroke-dasharray:none;stroke-dashoffset:0;stroke-opacity:1"
     clip-path="url(#clipPath3865-7-7-8-6-5)" />
  <path
     transform="matrix(0,5,-5,0,184.5,-53.500006)"
     d="m 32,24 a 8,8 0 1 1 -16,0 8,8 0 1 1 16,0 z"
     id="path3859-6-7-0-9-1-2"
     style="opacity:0.15;vector-effect:none;fill:none;fill-opacity:1;stroke:url(#linearGradient1273-5);stroke-width:0.39999998;stroke-linecap:butt;stroke-linejoin:miter;stroke-miterlimit:4;stroke-dasharray:none;stroke-dashoffset:0;stroke-opacity:1"
     clip-path="url(#clipPath3865-7-7-8-6-0-7)" />
  <path
     style="color:#000000;display:inline;overflow:visible;visibility:visible;opacity:1;fill:none;stroke:url(#linearGradient12398-3);stroke-width:0.99999988;stroke-linecap:round;stroke-linejoin:round;stroke-miterlimit:4;stroke-dasharray:none;stroke-dashoffset:0;stroke-opacity:1;marker:none;enable-background:accumulate"
     id="path8655-6-0-9-5-0"
     d="m 115.5,66.498172 c 0,28.167477 -22.835193,51.001848 -50.99938,51.001848 -28.166783,0 -51.000617,-22.834639 -51.000617,-51.001848 0,-28.166134 22.833834,-50.998201 51.000617,-50.998201 28.164187,0 50.99938,22.832067 50.99938,50.998201 z" />
  <path
     style="color:#000000;display:inline;overflow:visible;visibility:visible;opacity:0.5;vector-effect:none;fill:none;fill-opacity:1;stroke:#555761;stroke-width:0.99999994;stroke-linecap:round;stroke-linejoin:round;stroke-miterlimit:4;stroke-dasharray:none;stroke-dashoffset:0;stroke-opacity:1;marker:none;enable-background:accumulate;clip-rule:nonzero;isolation:auto;mix-blend-mode:normal;color-interpolation:sRGB;color-interpolation-filters:linearRGB;solid-color:#000000;solid-opacity:1;fill-rule:nonzero;filter-blend-mode:normal;filter-gaussianBlur-deviation:0;color-rendering:auto;image-rendering:auto;shape-rendering:auto;text-rendering:auto;font-variant-east_asian:normal"
     id="path2555-4"
     d="M 64.50001,14.499989 C 35.808202,14.499989 12.5,37.808184 12.5,66.499992 12.5,95.191799 35.808202,118.5 64.50001,118.5 93.191814,118.5 116.50003,95.191799 116.5,66.499992 116.5,37.808184 93.191814,14.499988 64.50001,14.499989 Z" />
  <path
     d="M 77.959738,52.000396 84,57.393609 63.704661,84 48,70.576966 l 5.194615,-6.831395 9.181198,7.910002 z"
     id="path4495"
     style="color:#000000;display:inline;overflow:visible;visibility:visible;opacity:0.3;fill:#ffffff;fill-opacity:1;fill-rule:nonzero;stroke:none;stroke-width:1;marker:none;enable-background:accumulate" />
  <path
     style="color:#000000;display:inline;overflow:visible;visibility:visible;opacity:1;fill:#206b00;fill-opacity:1;fill-rule:nonzero;stroke:none;stroke-width:1;marker:none;enable-background:accumulate"
     id="path2922-6-6-0-9-4-2"
     d="M 77.959738,51.000198 84,56.393411 63.704661,82.999802 48,69.576768 l 5.194615,-6.831395 9.181198,7.910002 z" />
</svg>
