<?xml version="1.0" encoding="UTF-8" standalone="no"?>
<svg
   xmlns:dc="http://purl.org/dc/elements/1.1/"
   xmlns:cc="http://creativecommons.org/ns#"
   xmlns:rdf="http://www.w3.org/1999/02/22-rdf-syntax-ns#"
   xmlns:svg="http://www.w3.org/2000/svg"
   xmlns="http://www.w3.org/2000/svg"
   xmlns:xlink="http://www.w3.org/1999/xlink"
   id="svg12303"
   height="24"
   width="24"
   version="1.1">
  <defs
     id="defs12305">
    <linearGradient
       id="linearGradient4011-2">
      <stop
         offset="0"
         style="stop-color:#ffffff;stop-opacity:1"
         id="stop4013-7" />
      <stop
         offset="0.507761"
         style="stop-color:#ffffff;stop-opacity:0.23529412"
         id="stop4015-9" />
      <stop
         offset="0.83456558"
         style="stop-color:#ffffff;stop-opacity:0.15686275"
         id="stop4017-5" />
      <stop
         offset="1"
         style="stop-color:#ffffff;stop-opacity:0.39215687"
         id="stop4019-6" />
    </linearGradient>
    <linearGradient
       id="linearGradient8838">
      <stop
         offset="0"
         style="stop-color:#000000;stop-opacity:1"
         id="stop8840" />
      <stop
         offset="1"
         style="stop-color:#000000;stop-opacity:0"
         id="stop8842" />
    </linearGradient>
    <radialGradient
       gradientTransform="matrix(1.0352941,0,0,0.2823525,-52.83529,19.69412)"
       gradientUnits="userSpaceOnUse"
       xlink:href="#linearGradient8838"
       id="radialGradient12301"
       fy="4.625"
       fx="62.625"
       r="10.625"
       cy="4.625"
       cx="62.625" />
    <clipPath
       id="clipPath3865-7-7-8-6"
       clipPathUnits="userSpaceOnUse">
      <path
         style="opacity:0.2;fill:#000000;fill-opacity:1;stroke:none"
         id="path3867-9-4-4-4"
         d="m 32,24 a 8,8 0 1 1 -16,0 8,8 0 1 1 16,0 z" />
    </clipPath>
    <linearGradient
       xlink:href="#linearGradient4011-2"
       id="linearGradient3993-0-6-0-8-5"
       gradientUnits="userSpaceOnUse"
       gradientTransform="matrix(0.45945943,0,0,-0.45945943,-20.958642,23.650623)"
       x1="71.204407"
       y1="6.2375584"
       x2="71.204407"
       y2="44.340794" />
    <linearGradient
       y2="43.282776"
       x2="71.204407"
       y1="7.6175823"
       x1="71.204407"
       gradientTransform="matrix(0.51351346,0,0,0.51351346,-24.836127,-1.0212835)"
       gradientUnits="userSpaceOnUse"
       id="linearGradient3111-7"
       xlink:href="#linearGradient4011-2" />
    <linearGradient
       id="linearGradient3907-7">
      <stop
         id="stop3909-5"
         offset="0"
         style="stop-color:#fafafa;stop-opacity:1" />
      <stop
         id="stop3911-3"
         offset="1"
         style="stop-color:#d4d4d4;stop-opacity:1" />
    </linearGradient>
    <linearGradient
       y2="23"
       x2="39.441502"
       y1="23"
       x1="6.6574788"
       gradientTransform="matrix(0,0.71428566,-0.71428566,0,28.428571,-4.4285706)"
       gradientUnits="userSpaceOnUse"
       id="linearGradient3932-9"
       xlink:href="#linearGradient3907-7" />
    <linearGradient
       id="linearGradient4804">
      <stop
         style="stop-color:#206b00;stop-opacity:1"
         offset="0"
         id="stop4806" />
      <stop
         style="stop-color:#206b00;stop-opacity:0"
         offset="1"
         id="stop4809" />
    </linearGradient>
    <linearGradient
       xlink:href="#linearGradient5239"
       id="linearGradient4309"
       gradientUnits="userSpaceOnUse"
       gradientTransform="matrix(0.5,0,0,-0.5,-87.590631,27.624997)"
       x1="203.18126"
       y1="15.249992"
       x2="203.18126"
       y2="47.249992" />
    <linearGradient
       id="linearGradient5239">
      <stop
         id="stop5241"
         offset="0"
         style="stop-color:#9bdb4d;stop-opacity:1" />
      <stop
         id="stop5243"
         offset="1"
         style="stop-color:#68b723;stop-opacity:1" />
    </linearGradient>
    <clipPath
       id="clipPath3865-7-7-8-6-5"
       clipPathUnits="userSpaceOnUse">
      <path
         style="opacity:0.2;fill:#000000;fill-opacity:1;stroke:none"
         id="path3867-9-4-4-4-3"
         d="m 32,24 a 8,8 0 1 1 -16,0 8,8 0 1 1 16,0 z" />
    </clipPath>
    <linearGradient
       gradientUnits="userSpaceOnUse"
       y2="24"
       x2="32"
       y1="24"
       x1="16"
       id="linearGradient932"
       xlink:href="#linearGradient4804" />
  </defs>
  <metadata
     id="metadata12308">
    <rdf:RDF>
      <cc:Work
         rdf:about="">
        <dc:format>image/svg+xml</dc:format>
        <dc:type
           rdf:resource="http://purl.org/dc/dcmitype/StillImage" />
        <dc:title></dc:title>
      </cc:Work>
    </rdf:RDF>
  </metadata>
  <path
     d="m 23,21 c 0,1.65685 -4.92486,3 -11,3 -6.07514,0 -11,-1.34315 -11,-3 0,-1.65685 4.92486,-3 11,-3 6.07514,0 11,1.34315 11,3 l 0,0 z"
     id="path8836"
     style="display:inline;overflow:visible;visibility:visible;opacity:0.3;fill:url(#radialGradient12301);fill-opacity:1;fill-rule:evenodd;stroke:none;stroke-width:0.99999988;marker:none" />
  <path
     d="M 12.000352,2.0000011 C 6.477331,2.0000011 2,6.4774836 2,11.999875 2,17.522772 6.4773788,22 12.000352,22 17.523126,22 22,17.522772 22,11.999875 22,6.4774836 17.523126,2.0000011 12.000352,2.0000011 Z"
     id="path3902-8"
     style="fill:url(#linearGradient3932-9);fill-opacity:1;fill-rule:nonzero;stroke:none;stroke-width:1" />
  <path
     d="M 21.5,11.999664 C 21.5,17.246538 17.246392,21.5 12.00012,21.5 6.7533685,21.5 2.5,17.24649 2.5,11.999664 c 0,-5.2466314 4.2533685,-9.4996625 9.50012,-9.4996625 5.246272,0 9.49988,4.2530311 9.49988,9.4996625 z"
     id="path8655-9"
     style="color:#000000;display:inline;overflow:visible;visibility:visible;opacity:1;fill:none;stroke:url(#linearGradient3111-7);stroke-width:0.99999994;stroke-linecap:round;stroke-linejoin:round;stroke-miterlimit:4;stroke-dasharray:none;stroke-dashoffset:0;stroke-opacity:1;marker:none;enable-background:accumulate" />
  <path
     d="M 20.5,12.000301 C 20.5,7.3057306 16.69414,3.4999999 12.000108,3.4999999 7.3056461,3.4999999 3.5,7.3057728 3.5,12.000301 3.5,16.694655 7.3056461,20.5 12.000108,20.5 16.69414,20.5 20.5,16.694655 20.5,12.000301 Z"
     id="path8655-1-6-9-4-8-2"
     style="color:#000000;display:inline;overflow:visible;visibility:visible;opacity:0.5;fill:none;stroke:url(#linearGradient3993-0-6-0-8-5);stroke-width:1;stroke-linecap:round;stroke-linejoin:round;stroke-miterlimit:4;stroke-dasharray:none;stroke-dashoffset:0;stroke-opacity:1;marker:none;enable-background:accumulate" />
  <path
     d="M 12.000001,1.4999995 C 6.206464,1.4999995 1.5,6.206461 1.5,11.999999 1.5,17.793537 6.206464,22.500002 12.000001,22.5 17.793537,22.5 22.500005,17.793537 22.5,11.999999 22.5,6.206461 17.793537,1.4999995 12.000001,1.4999995 Z"
     id="path2555-6-6"
     style="color:#000000;display:inline;overflow:visible;visibility:visible;opacity:0.5;fill:none;stroke:#555761;stroke-width:1;stroke-linecap:round;stroke-linejoin:round;stroke-miterlimit:4;stroke-dasharray:none;stroke-dashoffset:0;stroke-opacity:1;marker:none;enable-background:accumulate" />
  <path
     d="M 12.000285,4.0000015 C 7.5818635,4.0000015 4,7.5819865 4,11.9999 4,16.418218 7.5819015,20 12.000285,20 16.418501,20 20,16.418218 20,11.9999 20,7.5819865 16.418501,4.0000015 12.000285,4.0000015 Z"
     id="path3824-3-2"
     style="opacity:1;vector-effect:none;fill:url(#linearGradient4309);fill-opacity:1;fill-rule:nonzero;stroke:none;stroke-width:1;stroke-linecap:butt;stroke-linejoin:miter;stroke-miterlimit:4;stroke-dasharray:none;stroke-dashoffset:0;stroke-opacity:1;marker:none" />
  <g
     style="opacity:1;vector-effect:none;fill:none;fill-opacity:1;stroke:none;stroke-width:1.46428573;stroke-linecap:butt;stroke-linejoin:miter;stroke-miterlimit:4;stroke-dasharray:none;stroke-dashoffset:0;stroke-opacity:1"
     transform="matrix(0.6829268,0,0,0.6829268,-630.63412,191.86584)"
     id="g854-6-8">
    <path
       d="m 941,-269 a 3,3 0 0 0 -3,3 c 0,1.243 0.745,2.304 1.822,2.759 L 938,-257 h 6 l -1.821,-6.241 A 2.984,2.984 0 0 0 944,-266 a 3,3 0 0 0 -3,-3 z"
       overflow="visible"
       style="color:#000000;overflow:visible;vector-effect:none;fill:none;fill-opacity:1;stroke:none;stroke-width:1.46428573;stroke-linecap:butt;stroke-linejoin:miter;stroke-miterlimit:4;stroke-dasharray:none;stroke-dashoffset:0;stroke-opacity:1;marker:none"
       id="path852-1-60" />
  </g>
  <path
     clip-path="url(#clipPath3865-7-7-8-6)"
     style="opacity:0.5;vector-effect:none;fill:none;fill-opacity:1;stroke:#555761;stroke-width:2;stroke-linecap:butt;stroke-linejoin:miter;stroke-miterlimit:4;stroke-dasharray:none;stroke-dashoffset:0;stroke-opacity:1"
     id="path3859-6-7-0-9"
     d="m 32,24 a 8,8 0 1 1 -16,0 8,8 0 1 1 16,0 z"
     transform="translate(-12,-12)" />
  <path
     id="path4299"
     d="m 15.340936,10.076171 a 1,1 0 0 0 -0.6875,0.30274 l -3.79297,3.792969 -1.4921903,-1.49219 c -0.942,-0.982 -2.39606,0.47206 -1.41406,1.41406 L 10.860466,17 l 5.20703,-5.20703 c 0.654,-0.636 0.18544,-1.742799 -0.72656,-1.716799 z"
     style="color:#000000;clip-rule:nonzero;display:inline;overflow:visible;visibility:visible;opacity:0.3;isolation:auto;mix-blend-mode:normal;color-interpolation:sRGB;color-interpolation-filters:linearRGB;solid-color:#000000;solid-opacity:1;fill:#ffffff;fill-opacity:1;fill-rule:nonzero;stroke:none;stroke-width:1;stroke-linecap:butt;stroke-linejoin:miter;stroke-miterlimit:4;stroke-dasharray:none;stroke-dashoffset:0;stroke-opacity:1;marker:none;color-rendering:auto;image-rendering:auto;shape-rendering:auto;text-rendering:auto;enable-background:accumulate" />
  <path
     style="color:#000000;clip-rule:nonzero;display:inline;overflow:visible;visibility:visible;opacity:1;isolation:auto;mix-blend-mode:normal;color-interpolation:sRGB;color-interpolation-filters:linearRGB;solid-color:#000000;solid-opacity:1;fill:#206b00;fill-opacity:1;fill-rule:nonzero;stroke:none;stroke-width:1.64631891;stroke-linecap:butt;stroke-linejoin:miter;stroke-miterlimit:4;stroke-dasharray:none;stroke-dashoffset:0;stroke-opacity:1;marker:none;color-rendering:auto;image-rendering:auto;shape-rendering:auto;text-rendering:auto;enable-background:accumulate"
     d="m 15.340936,9.0761705 a 1,1 0 0 0 -0.6875,0.30274 L 10.860466,13.17188 9.3682757,11.67969 c -0.942,-0.982 -2.39606,0.47206 -1.41406,1.41406 L 10.860466,16 l 5.20703,-5.20703 c 0.654,-0.636 0.18544,-1.7427995 -0.72656,-1.7167995 z"
     id="rect4140" />
  <path
     clip-path="url(#clipPath3865-7-7-8-6-5)"
     style="opacity:0.15;vector-effect:none;fill:none;fill-opacity:1;stroke:url(#linearGradient932);stroke-width:2.28571439;stroke-linecap:butt;stroke-linejoin:miter;stroke-miterlimit:4;stroke-dasharray:none;stroke-dashoffset:0;stroke-opacity:1"
     id="path3859-6-7-0-9-5"
     d="m 32,24 a 8,8 0 1 1 -16,0 8,8 0 1 1 16,0 z"
     transform="matrix(0,0.875,-0.875,0,33,-9)" />
</svg>
