<?xml version="1.0" encoding="UTF-8" standalone="no"?>
<svg
   height="16"
   width="16"
   version="1.1"
   id="svg1"
   sodipodi:docname="quick-settings.svg"
   inkscape:version="1.4.3 (0d15f75042, 2025-12-25)"
   xmlns:inkscape="http://www.inkscape.org/namespaces/inkscape"
   xmlns:sodipodi="http://sodipodi.sourceforge.net/DTD/sodipodi-0.dtd"
   xmlns="http://www.w3.org/2000/svg"
   xmlns:svg="http://www.w3.org/2000/svg">
  <sodipodi:namedview
     id="namedview1"
     pagecolor="#ffffff"
     bordercolor="#666666"
     borderopacity="1.0"
     inkscape:showpageshadow="2"
     inkscape:pageopacity="0.0"
     inkscape:pagecheckerboard="0"
     inkscape:deskcolor="#d1d1d1"
     inkscape:zoom="46.291667"
     inkscape:cx="3.6291629"
     inkscape:cy="8.5544554"
     inkscape:window-width="2560"
     inkscape:window-height="1373"
     inkscape:window-x="0"
     inkscape:window-y="0"
     inkscape:window-maximized="1"
     inkscape:current-layer="svg1" />
  <defs
     id="defs1" />
  <path
     id="rect1-7"
     style="fill:#555761;stroke-width:0.99999;stroke-linecap:round;stroke-linejoin:round;stroke-opacity:0.5;-inkscape-stroke:none"
     d="M 3.5,1 C 1.5610019,1 0,2.5610019 0,4.5 0,6.438998 1.5610019,8 3.5,8 h 9 C 14.438998,8 16,6.438998 16,4.5 16,2.5610019 14.438998,1 12.5,1 Z m 0,1 h 9 C 13.884999,2 15,3.1150014 15,4.5 15,5.8849986 13.884999,7 12.5,7 h -9 C 2.1150014,7 1,5.8849986 1,4.5 1,3.1150014 2.1150014,2 3.5,2 Z" />
  <path
     id="rect1-7-8"
     style="fill:#555761;stroke-width:0.99999;stroke-linecap:round;stroke-linejoin:round;stroke-opacity:0.5;-inkscape-stroke:none"
     d="m 3,9 c -1.6619983,0 -3,1.338002 -3,3 0,1.661998 1.3380017,3 3,3 h 10 c 1.661998,0 3,-1.338002 3,-3 0,-1.661998 -1.338002,-3 -3,-3 z m 10,1 a 2,2 0 0 1 2,2 2,2 0 0 1 -2,2 2,2 0 0 1 -2,-2 2,2 0 0 1 2,-2 z" />
  <circle
     style="opacity:1;fill:#555761;stroke-width:0.999988;stroke-linecap:round;stroke-linejoin:round;stroke-opacity:0.5;-inkscape-stroke:none"
     id="path2"
     cx="3.5"
     cy="4.5"
     r="1.5" />
</svg>
